<svg xmlns="http://www.w3.org/2000/svg" viewBox="0 0 64 64" fill="none">
  <rect width="64" height="64" rx="14" fill="#0d9488"/>
  <!-- sun rays -->
  <g fill="#fbbf24">
    <path d="M32 6l2.2 5.4L40 8.8l-1.6 5.6L44 16l-5.4 2.2L40 24l-5.6-1.6L32 28l-2.2-5.6L24 24l1.6-5.8L20 16l5.4-1.6L24 8.8l5.6 2.6L32 6z"/>
    <circle cx="32" cy="22" r="9"/>
  </g>
  <!-- sunglasses -->
  <rect x="25" y="17" width="6" height="3.5" rx="1.2" fill="#0f766e"/>
  <rect x="33" y="17" width="6" height="3.5" rx="1.2" fill="#0f766e"/>
  <path d="M31 18.5h2" stroke="#0f766e" stroke-width="1.2" stroke-linecap="round"/>
  <!-- smile -->
  <path d="M27 25.5c1.8 2.2 6.2 2.2 8 0" stroke="#b45309" stroke-width="1.6" stroke-linecap="round"/>
  <circle cx="28.5" cy="23.5" r="1" fill="#1e3a5f"/>
  <circle cx="35.5" cy="23.5" r="1" fill="#1e3a5f"/>
  <!-- checklist -->
  <rect x="36" y="30" width="18" height="24" rx="2.5" fill="#f8fafc" stroke="#0f766e" stroke-width="1.2"/>
  <rect x="36" y="30" width="18" height="6" rx="2.5" fill="#99f6e4"/>
  <circle cx="40" cy="41" r="2.2" fill="#22c55e"/>
  <path d="M39 41l1 1 2.2-2.4" stroke="#fff" stroke-width="1.2" stroke-linecap="round" stroke-linejoin="round"/>
  <circle cx="40" cy="47" r="2.2" fill="#3b82f6"/>
  <path d="M39 47l1 1 2.2-2.4" stroke="#fff" stroke-width="1.2" stroke-linecap="round" stroke-linejoin="round"/>
  <circle cx="40" cy="53" r="2.2" fill="#f97316"/>
  <path d="M39 53l1 1 2.2-2.4" stroke="#fff" stroke-width="1.2" stroke-linecap="round" stroke-linejoin="round"/>
  <rect x="44" y="40" width="7" height="1.6" rx=".8" fill="#5eead4"/>
  <rect x="44" y="46" width="7" height="1.6" rx=".8" fill="#5eead4"/>
  <rect x="44" y="52" width="7" height="1.6" rx=".8" fill="#5eead4"/>
</svg>
