<svg xmlns="http://www.w3.org/2000/svg" viewBox="0 0 64 64" fill="none">
  <rect width="64" height="64" rx="14" fill="#0d9488"/>
  <!-- calendar -->
  <rect x="14" y="16" width="28" height="32" rx="4" fill="#f8fafc" stroke="#0f766e" stroke-width="1.5"/>
  <rect x="14" y="16" width="28" height="9" rx="4" fill="#99f6e4"/>
  <circle cx="22" cy="14" r="2" fill="#0f766e"/>
  <circle cx="34" cy="14" r="2" fill="#0f766e"/>
  <rect x="18" y="30" width="5" height="5" rx="1" fill="#5eead4"/>
  <rect x="25.5" y="30" width="5" height="5" rx="1" fill="#fbbf24"/>
  <rect x="33" y="30" width="5" height="5" rx="1" fill="#fb923c"/>
  <rect x="18" y="37" width="5" height="5" rx="1" fill="#e2e8f0"/>
  <rect x="25.5" y="37" width="5" height="5" rx="1" fill="#e2e8f0"/>
  <rect x="33" y="37" width="5" height="5" rx="1" fill="#5eead4"/>
  <!-- checklist -->
  <rect x="36" y="30" width="18" height="24" rx="3" fill="#f8fafc" stroke="#0f766e" stroke-width="1.2"/>
  <rect x="36" y="30" width="18" height="6" rx="3" fill="#99f6e4"/>
  <rect x="39" y="40" width="3.5" height="3.5" rx="0.8" fill="#0d9488"/>
  <path d="M39.5 42l1 1 2-2.2" stroke="#fff" stroke-width="1" stroke-linecap="round" stroke-linejoin="round"/>
  <rect x="44" y="40.5" width="7" height="1.6" rx="0.8" fill="#5eead4"/>
  <rect x="39" y="46" width="3.5" height="3.5" rx="0.8" fill="#fbbf24"/>
  <path d="M39.5 48l1 1 2-2.2" stroke="#fff" stroke-width="1" stroke-linecap="round" stroke-linejoin="round"/>
  <rect x="44" y="46.5" width="7" height="1.6" rx="0.8" fill="#5eead4"/>
  <rect x="39" y="52" width="3.5" height="3.5" rx="0.8" fill="#fb923c"/>
  <path d="M39.5 54l1 1 2-2.2" stroke="#fff" stroke-width="1" stroke-linecap="round" stroke-linejoin="round"/>
  <rect x="44" y="52.5" width="7" height="1.6" rx="0.8" fill="#5eead4"/>
</svg>
